<svg width="18" height="18" viewBox="0 0 18 18" fill="none" xmlns="http://www.w3.org/2000/svg">
<path d="M17.2247 1.35532e-06H0.775458C0.485154 -0.000534021 0.21918 0.15758 0.0865581 0.409384C-0.0478927 0.664579 -0.0242951 0.971884 0.147473 1.20495L6.17379 9.48701C6.1758 9.48987 6.178 9.49255 6.18001 9.4954C6.39897 9.78379 6.51751 10.1332 6.51806 10.4921V17.2444C6.51678 17.4443 6.59727 17.6365 6.74159 17.7784C6.88611 17.9201 7.08257 18 7.28745 18C7.39153 17.9998 7.4947 17.9797 7.59092 17.9406L10.9772 16.681C11.2805 16.5905 11.4819 16.3113 11.4819 15.975V10.4921C11.4825 10.1332 11.601 9.78379 11.8198 9.4954C11.8218 9.49255 11.824 9.48987 11.826 9.48701L17.8525 1.20477C18.0243 0.971884 18.0479 0.664758 17.9134 0.409563C17.781 0.15758 17.5148 -0.000534021 17.2247 1.35532e-06Z" fill="#827B7B"/>
</svg>
