<svg width="19" height="19" viewBox="0 0 19 19" fill="none" xmlns="http://www.w3.org/2000/svg">
<path d="M11.033 2.18891L11.0333 7.9372L16.7814 7.93736C17.6366 7.93752 18.3293 8.63026 18.3295 9.48541C18.3295 9.9126 18.1563 10.2995 17.8764 10.5794C17.596 10.8598 17.2093 11.0331 16.7821 11.0328L11.033 11.033L11.033 16.7818C11.033 17.209 10.8598 17.5959 10.5797 17.8761C10.2996 18.1561 9.91304 18.3293 9.48552 18.3293C8.63056 18.3293 7.93779 17.6366 7.93746 16.7812L7.93722 11.0332L2.18888 11.033C1.3339 11.033 0.640992 10.3401 0.640993 9.48511C0.64124 8.63053 1.33374 7.93803 2.18848 7.93762L7.93731 7.93737L7.93734 2.18875C7.93784 1.33393 8.63042 0.64135 9.48491 0.641186C10.3401 0.641021 11.033 1.33393 11.033 2.18891Z" fill="#827B7B"/>
</svg>
