<svg width="37" height="26" viewBox="0 0 37 26" fill="none" xmlns="http://www.w3.org/2000/svg">
<path d="M0.495531 14.3014L11.2098 25.102C11.8661 25.7635 12.9241 25.7635 13.5804 25.102C14.2366 24.4405 14.2366 23.3739 13.5804 22.7124L5.71874 14.7874H34.3393C35.2634 14.7874 36.0134 14.0314 36.0134 13.0998C36.0134 12.1683 35.2634 11.4122 34.3393 11.4122H5.71874L13.5804 3.4873C14.2366 2.82577 14.2366 1.75921 13.5804 1.09767C13.2589 0.773654 12.8303 0.598145 12.4018 0.598145C11.9732 0.598145 11.5446 0.760154 11.2232 1.09767L0.508924 11.8983C-0.160719 12.5733 -0.160719 13.6399 0.495531 14.3014Z" fill="#827B7B"/>
</svg>
