<svg width="62" height="60" viewBox="0 0 62 60" fill="none" xmlns="http://www.w3.org/2000/svg">
<path d="M30.9303 56.8755C22.0992 56.8755 13.917 52.3416 9.05459 44.7597C8.73539 44.2571 8.86307 43.5798 9.36315 43.2411C9.85258 42.9133 10.5123 43.0444 10.8421 43.5579C15.3109 50.528 22.8227 54.6905 30.941 54.6905C36.6652 54.6905 42.2193 52.5929 46.5604 48.7691C50.8589 44.9891 53.7317 39.7779 54.6574 34.0859C54.7532 33.496 55.3064 33.0918 55.881 33.1901C56.4556 33.2884 56.8492 33.8565 56.7535 34.4465C55.7427 40.6519 52.6145 46.3219 47.9436 50.4297C43.1982 54.5921 37.1653 56.8755 30.9303 56.8755Z" fill="#780B00"/>
<path d="M7.75653 21.1507C7.61821 21.1507 7.47989 21.1289 7.34157 21.0633C6.79893 20.8339 6.54357 20.1893 6.76701 19.6322C8.7354 14.8033 12.0125 10.6846 16.2472 7.73485C20.5883 4.70863 25.6636 3.11359 30.9303 3.11359C37.3994 3.11359 43.6238 5.56078 48.433 9.99633C48.8693 10.4005 48.9012 11.0888 48.5075 11.5367C48.1138 11.9847 47.4435 12.0174 47.0073 11.6132C42.5917 7.5382 36.8781 5.28766 30.9303 5.28766C26.0998 5.28766 21.4289 6.75161 17.4495 9.52655C13.5553 12.2359 10.5442 16.016 8.7354 20.4515C8.56516 20.8995 8.17149 21.1507 7.75653 21.1507Z" fill="#780B00"/>
<path d="M16.1408 24.1552C15.8854 23.8056 15.5343 23.5106 15.0981 23.2703C14.6512 23.0299 14.1405 22.8333 13.5447 22.6912C12.9488 22.5492 12.3104 22.4509 11.6188 22.4181C10.9272 22.3744 10.2143 22.3963 9.46955 22.4618C8.72476 22.5274 7.97996 22.6475 7.2458 22.8223C6.60741 22.9753 5.99029 23.161 5.39445 23.3904C4.79862 23.6199 4.22406 23.893 3.69206 24.2098C3.16006 24.5266 2.65999 24.8762 2.20247 25.2695C1.75559 25.6628 1.36191 26.1108 1.03207 26.5915C0.702236 27.0831 0.446878 27.6075 0.276639 28.1756C0.0851196 28.7437 0 29.3555 0 30.0219C0 30.7102 0.148959 31.0161 0.436238 30.9396C0.649037 30.885 0.915035 30.6228 1.24487 30.1421C1.57471 29.6614 1.94711 28.9731 2.37271 28.0663C2.57487 27.7277 2.88343 27.389 3.28774 27.0612C3.69206 26.7335 4.14958 26.4385 4.6603 26.1654C5.18165 25.8923 5.73493 25.6519 6.34141 25.4443C6.77765 25.2914 7.39476 25.1166 8.18212 24.9309C8.67156 24.8107 9.15035 24.7233 9.62915 24.6577C10.1079 24.5922 10.5655 24.5485 10.9911 24.5376C11.4273 24.5266 11.821 24.5485 12.1934 24.5922C12.5551 24.6359 12.8743 24.7233 13.151 24.8435C13.4276 24.9636 13.6298 25.1166 13.7894 25.3023C13.9383 25.499 14.0234 25.7284 14.0234 26.0015C14.0234 26.4167 13.9277 26.8318 13.7468 27.236C13.5553 27.6403 13.2787 28.0226 12.9275 28.3832C12.5764 28.7437 12.1402 29.0605 11.6401 29.3336C11.14 29.6177 10.5655 29.8253 9.93771 29.9782C9.67171 30.0438 9.41635 30.0875 9.19291 30.1202C8.95884 30.153 8.70348 30.1967 8.42684 30.2623C8.21404 30.3169 8.05444 30.3715 7.92676 30.4261C7.80972 30.4917 7.71396 30.5572 7.65012 30.6446C7.58628 30.732 7.55436 30.8194 7.53308 30.9287C7.52244 31.0379 7.5118 31.1581 7.5118 31.3001C7.5118 31.606 7.58628 31.8245 7.73524 31.9884C7.8842 32.1414 8.06508 32.2615 8.29916 32.3271C8.53324 32.4036 8.79924 32.4473 9.09715 32.4582C9.39507 32.4691 9.70363 32.48 10.0122 32.491C10.3207 32.5019 10.6293 32.5237 10.9272 32.5674C11.2251 32.6002 11.4911 32.6876 11.7252 32.8078C11.9593 32.928 12.1508 33.1137 12.2891 33.3431C12.4381 33.5725 12.5126 33.8894 12.5126 34.2936C12.5126 35.0365 12.3955 35.6811 12.1615 36.2164C11.9167 36.7517 11.5975 37.2215 11.1932 37.6257C10.7889 38.0299 10.3314 38.3686 9.81003 38.6308C9.28867 38.893 8.74604 39.0896 8.19276 39.2317C7.73524 39.3409 7.27772 39.3955 6.82021 39.4065C6.36269 39.4174 5.93709 39.4065 5.53277 39.3628C5.47957 39.33 5.43701 39.2754 5.41573 39.1989C5.38381 39.1224 5.36253 39.0241 5.35189 38.9258C5.34125 38.8274 5.33061 38.7291 5.33061 38.6308C5.33061 38.5325 5.33061 38.456 5.33061 38.4014C5.33061 38.0627 5.33061 37.7022 5.34125 37.3198C5.35189 36.9484 5.36253 36.566 5.37317 36.1836C5.39445 35.8012 5.40509 35.4079 5.42637 35.0146C5.44765 34.6104 5.46893 34.2499 5.50085 33.9221C5.55405 33.3431 5.61789 32.7422 5.70301 32.1195C5.78813 31.4968 5.88389 30.9833 5.99029 30.5463C6.09669 30.1202 6.25629 29.6177 6.46909 29.0387C6.68189 28.4706 6.92661 27.9352 7.22452 27.4327C6.90533 26.952 6.50101 26.7663 6.02221 26.8755C5.63917 26.9629 5.22421 27.236 4.7667 27.673C4.24534 28.6126 3.84102 29.5521 3.55374 30.4808C3.26646 31.4094 3.05366 32.48 2.88343 33.6927C2.72383 34.9054 2.61743 36.1071 2.56423 37.3089C2.51103 38.5106 2.50039 39.6796 2.50039 40.8158C2.50039 41.0452 2.57487 41.1763 2.71319 41.2309C2.85151 41.2856 3.02174 41.3183 3.20262 41.3183C3.61758 41.362 4.05382 41.3948 4.52198 41.4057C4.99014 41.4167 5.45829 41.4167 5.93709 41.3948C6.41589 41.373 6.89469 41.3293 7.36284 41.2746C7.831 41.22 8.27788 41.1326 8.70348 41.0343C9.37379 40.8704 9.99091 40.6519 10.5548 40.3679C11.1187 40.0838 11.6188 39.7561 12.0657 39.3955C12.5126 39.035 12.8956 38.6308 13.2255 38.2047C13.5553 37.7787 13.8319 37.3307 14.0554 36.8828C14.2788 36.4349 14.4384 35.976 14.5448 35.5172C14.6512 35.0583 14.7044 34.6213 14.7044 34.1953C14.7044 33.6599 14.6193 33.1574 14.449 32.6876C14.2788 32.2069 14.0341 31.8245 13.7043 31.5296C13.3744 31.2346 12.9701 31.0379 12.4807 30.9396C11.9912 30.8413 11.4273 30.8631 10.7889 31.0161C11.8103 30.7539 12.6828 30.4043 13.4063 29.9673C14.1298 29.5303 14.7257 29.0496 15.1938 28.5252C15.662 28.0008 16.0025 27.4655 16.2153 26.9083C16.4281 26.3511 16.5345 25.8049 16.5345 25.2805C16.5132 24.8981 16.3855 24.5048 16.1408 24.1552Z" fill="#AE4536"/>
<path d="M18.6731 26.0452C18.9498 26.2637 19.3754 26.3074 19.9499 26.1654C20.2797 26.0889 20.567 25.9687 20.8011 25.8049C21.0352 25.641 21.2373 25.4553 21.3863 25.2477C21.5459 25.0401 21.6523 24.8216 21.7268 24.5813C21.8013 24.3409 21.8332 24.1115 21.8332 23.8821C21.8332 23.6308 21.7906 23.4232 21.6949 23.2593C21.6097 23.0955 21.4821 22.9753 21.3331 22.8988C21.1841 22.8223 21.0033 22.7786 20.8011 22.7786C20.5989 22.7677 20.3861 22.8005 20.1521 22.8551C19.7903 22.9425 19.4818 23.0736 19.237 23.2484C18.9923 23.4232 18.8008 23.6199 18.6518 23.8274C18.5029 24.035 18.3965 24.2426 18.3326 24.4611C18.2688 24.6796 18.2369 24.8653 18.2369 25.0183C18.2582 25.4771 18.3965 25.8267 18.6731 26.0452Z" fill="#AE4536"/>
<path d="M60.5945 23.1064C60.3391 23.4232 60.0306 23.7619 59.6688 24.1224C59.3071 24.4938 58.9134 24.8434 58.5091 25.1821C58.0941 25.5208 57.6791 25.8158 57.2429 26.078C56.8067 26.3402 56.4024 26.515 56.0087 26.6133C55.881 26.6461 55.764 26.657 55.6576 26.657C55.5512 26.657 55.4448 26.6351 55.349 26.5914C55.2532 26.5477 55.1575 26.4822 55.0617 26.3839C54.966 26.2855 54.8702 26.1654 54.7744 26.0015C55.3384 25.7065 55.8704 25.3569 56.3598 24.9636C56.8492 24.5594 57.2642 24.1442 57.6153 23.6963C57.9664 23.2484 58.275 22.7349 58.5303 22.1668C58.7963 21.5987 58.924 21.1071 58.924 20.6919C58.924 20.3096 58.8495 19.9709 58.7219 19.6978C58.5942 19.4137 58.4027 19.1952 58.1686 19.0314C57.9345 18.8675 57.6579 18.7582 57.3493 18.7145C57.0301 18.6708 56.6896 18.6818 56.3279 18.7692C55.881 18.8784 55.4767 19.0532 55.1043 19.3045C54.7425 19.5557 54.4127 19.8507 54.1148 20.2003C53.8168 20.5499 53.5615 20.9323 53.3487 21.3474C53.1253 21.7626 52.9444 22.1887 52.8061 22.6257C52.6677 23.0627 52.5188 23.5543 52.3911 24.1005C52.2528 24.6468 52.1889 25.1166 52.1996 25.488C52.1996 25.7611 52.2209 26.0233 52.2528 26.2855C52.2741 26.4276 52.2953 26.5587 52.3273 26.6898C52.2953 26.5587 52.2741 26.4276 52.2528 26.2855C52.1783 26.362 52.0932 26.4276 52.0187 26.504C51.8378 26.6679 51.6569 26.8318 51.4548 26.9957C51.2633 27.1595 51.0717 27.3125 50.8909 27.4436C50.71 27.5747 50.5291 27.6949 50.3695 27.7823C50.2099 27.8806 50.0609 27.9352 49.9333 27.968C49.8801 27.9789 49.8269 27.9571 49.763 27.8915C49.6992 27.826 49.646 27.7386 49.5928 27.6184C49.5396 27.4982 49.497 27.3562 49.4545 27.2032C49.4226 27.0503 49.4013 26.8755 49.4013 26.7007V26.5587C49.4226 26.4166 49.4438 26.2746 49.4757 26.1217C49.5077 25.9687 49.5396 25.8267 49.5715 25.6956C49.6034 25.5645 49.6353 25.4334 49.6673 25.3132C49.6992 25.193 49.7417 25.0947 49.7737 25.0182C50.0716 24.33 50.3908 23.6308 50.7525 22.8988C51.1037 22.1668 51.4548 21.4348 51.8059 20.6919C52.157 19.949 52.4869 19.1952 52.8167 18.4414C53.1359 17.6876 53.4232 16.9556 53.6679 16.2236C53.9126 15.4917 54.1041 14.7815 54.2424 14.0823C54.3808 13.3831 54.4552 12.7167 54.4446 12.0721C54.4446 11.8099 54.4233 11.5696 54.3701 11.3292C54.3276 11.0889 54.2424 10.8922 54.1254 10.7174C54.0084 10.5426 53.8594 10.4225 53.6572 10.3569C53.4551 10.2804 53.2104 10.2804 52.9125 10.3569C52.4975 10.4552 52.0932 10.6737 51.6889 11.0124C51.2845 11.3511 50.9015 11.7881 50.5397 12.3016C50.178 12.826 49.8269 13.4159 49.4864 14.0714C49.1566 14.7269 48.848 15.4261 48.5607 16.169C48.2734 16.901 47.9968 17.8624 47.7202 19.0314C47.4435 20.2003 47.3052 20.7684 47.3052 20.7903C47.3052 20.823 47.2201 21.3693 47.0286 22.5164C46.8477 23.6745 46.7626 24.5812 46.7626 25.2367C46.7626 25.63 46.7838 26.0124 46.8158 26.3839C46.6455 26.6351 46.454 26.8973 46.2412 27.1705C45.9007 27.6184 45.539 28.0335 45.1559 28.4378C44.7729 28.8311 44.4005 29.1697 44.0175 29.4647C43.6451 29.7597 43.2939 29.9345 42.9854 30.011C42.6662 30.0874 42.4108 30.0765 42.198 29.9782C41.9959 29.8799 41.8256 29.7378 41.6979 29.5521C41.5703 29.3664 41.4851 29.137 41.4426 28.8857C41.4 28.6344 41.3787 28.3831 41.3787 28.1428C41.3787 27.9789 41.3787 27.7823 41.3894 27.531C41.4 27.2906 41.4319 27.0284 41.4851 26.7553C41.5383 26.4822 41.6341 26.1326 41.7618 25.7065C41.8895 25.2914 42.0171 24.9527 42.1555 24.7123C42.2831 24.472 42.4427 24.2535 42.6343 24.0787C42.8258 23.9039 43.0492 23.7837 43.3152 23.7182C43.4216 23.6963 43.4961 23.7291 43.528 23.8274C43.5599 23.9257 43.5812 24.0568 43.5812 24.2207C43.5919 24.4064 43.5919 24.5266 43.5706 24.5922C43.4748 25.0073 43.4216 25.2695 43.4003 25.3788C43.3471 25.5973 43.3897 25.8158 43.5599 26.0452C43.6557 26.1872 43.8685 26.22 44.1983 26.1435C44.4218 26.0889 44.6133 25.9906 44.7835 25.8376C44.9538 25.6847 45.1347 25.4443 45.3155 25.0947C45.4964 24.756 45.6241 24.4611 45.6773 24.2207C45.7411 23.9804 45.7731 23.7509 45.7731 23.5215C45.7731 23.1938 45.6986 22.8988 45.5603 22.6366C45.4219 22.3853 45.2304 22.1777 44.9963 22.0248C44.7516 21.8718 44.4643 21.7735 44.1239 21.7407C43.7834 21.708 43.4216 21.7298 43.0279 21.8281C42.5917 21.9374 42.1874 22.1122 41.815 22.3635C41.4532 22.6147 41.1128 22.9206 40.8148 23.2702C40.5169 23.6198 40.2616 24.0131 40.0381 24.4392C39.8147 24.8653 39.6232 25.3023 39.4742 25.7502C39.3252 26.1981 39.1869 26.7116 39.0592 27.2906C38.9316 27.8697 38.8677 28.3504 38.8677 28.7437C38.8677 28.8966 38.8784 29.0386 38.889 29.1807C38.9209 29.563 38.9954 29.9236 39.1124 30.2622C38.9954 29.9236 38.9209 29.563 38.889 29.1807C38.7188 29.4538 38.5592 29.6941 38.4102 29.9236C38.0697 30.437 37.7505 30.8631 37.4739 31.2127C37.1973 31.5623 36.9419 31.8464 36.7078 32.0758C36.4844 32.2943 36.2609 32.4909 36.0694 32.6548C36.229 31.464 36.3993 30.3387 36.5589 29.3008C36.6333 28.8638 36.7185 28.2739 36.8355 27.5528C36.9525 26.8318 37.0377 26.2637 37.1015 25.8595C37.1653 25.4552 37.2185 25.0947 37.2717 24.7888C37.3249 24.472 37.3568 24.2207 37.3888 24.035C37.41 23.9476 37.4207 23.8711 37.4207 23.8165C37.4207 23.6198 37.3462 23.4887 37.2079 23.4341C37.0696 23.3795 36.8993 23.3686 36.6972 23.4232C36.5269 23.4669 36.3461 23.5324 36.1545 23.6417C35.963 23.7509 35.7821 23.882 35.6119 24.0459C35.431 24.2098 35.2821 24.3955 35.1544 24.6031C35.0161 24.8216 34.9309 25.0401 34.8884 25.2804L34.1223 29.2571C34.101 29.4866 34.0478 29.7706 33.9521 30.1202C33.8669 30.4698 33.7499 30.8085 33.6116 31.1472C33.4733 31.4858 33.303 31.7917 33.1115 32.0539C32.92 32.3161 32.6966 32.48 32.4625 32.5346C32.3135 32.5674 32.1858 32.5565 32.0901 32.5019C31.9943 32.4472 31.9092 32.3598 31.856 32.2506C31.7922 32.1413 31.7496 31.9993 31.7283 31.8464C31.707 31.6934 31.6964 31.5295 31.6858 31.3547C31.6858 31.027 31.7177 30.6446 31.7922 30.2076C31.8666 29.7706 31.973 29.1807 32.1007 28.4378C32.2284 27.6949 32.3348 27.094 32.4093 26.6461C32.4838 26.1981 32.5795 25.8048 32.6966 25.4662C32.7391 25.3569 32.7604 25.2586 32.771 25.1603C32.7817 25.0729 32.7923 24.9855 32.7923 24.909C32.7923 24.6577 32.7072 24.4938 32.5476 24.4174C32.388 24.3409 32.1858 24.319 31.9624 24.3737C31.6964 24.4392 31.4198 24.5812 31.1431 24.8107C30.8665 25.0401 30.6537 25.3241 30.5047 25.6628C30.3026 26.1326 30.1323 26.6024 29.9727 27.0503C29.8131 27.4982 29.6854 28.0991 29.579 28.8529C29.4726 29.5958 29.3769 30.2295 29.3024 30.732C29.2918 30.7757 29.2918 30.8085 29.2811 30.8522C29.1854 30.9833 29.079 31.1253 28.9619 31.2673C28.6215 31.7153 28.2597 32.1304 27.8767 32.5346C27.4936 32.9279 27.1212 33.2666 26.7382 33.5616C26.3658 33.8565 26.0147 34.0313 25.7061 34.1078C25.3869 34.1843 25.1315 34.1734 24.9187 34.075C24.7166 33.9767 24.5464 33.8347 24.4187 33.649C24.291 33.4632 24.2059 33.2338 24.1633 32.9825C24.1208 32.7313 24.0995 32.48 24.0995 32.2397C24.0995 32.0758 24.0995 31.8791 24.1101 31.6279C24.1208 31.3875 24.1527 31.1253 24.2059 30.8522C24.2591 30.5791 24.3548 30.2295 24.4825 29.8034C24.6102 29.3882 24.7379 29.0496 24.8762 28.8092C25.0039 28.5689 25.1635 28.3504 25.355 28.1756C25.5465 28.0008 25.7699 27.8806 26.0359 27.815C26.1423 27.7932 26.2168 27.826 26.2487 27.9243C26.2807 28.0226 26.3019 28.1537 26.3019 28.3176C26.3126 28.5033 26.3126 28.6235 26.2913 28.689C26.1955 29.1042 26.1423 29.3664 26.1211 29.4756C26.0679 29.6941 26.1104 29.9126 26.2807 30.1421C26.3764 30.2841 26.5892 30.3169 26.9191 30.2404C27.1425 30.1858 27.334 30.0874 27.5043 29.9345C27.6745 29.7815 27.8554 29.5412 28.0363 29.1916C28.2171 28.8529 28.3448 28.5579 28.398 28.3176C28.4619 28.0772 28.4938 27.8478 28.4938 27.6184C28.4938 27.2906 28.4193 26.9957 28.281 26.7335C28.1427 26.4822 27.9511 26.2746 27.7171 26.1217C27.4723 25.9687 27.1851 25.8704 26.8446 25.8376C26.5041 25.8048 26.1423 25.8267 25.7487 25.925C25.3124 26.0343 24.9081 26.2091 24.5357 26.4603C24.174 26.7116 23.8335 27.0175 23.5356 27.3671C23.2376 27.7167 22.9823 28.11 22.7588 28.5361C22.5354 28.9622 22.3439 29.3992 22.1949 29.8471C22.046 30.295 21.9076 30.8085 21.78 31.3875C21.6523 31.9665 21.5884 32.4472 21.5884 32.8405C21.5884 33.1464 21.6204 33.4414 21.6629 33.7145C21.6736 33.7473 21.6736 33.791 21.6842 33.8238C21.6736 33.791 21.6736 33.7473 21.6629 33.7145C21.482 33.9221 21.2905 34.1297 21.099 34.3263C20.8117 34.6322 20.5138 34.9053 20.2265 35.1457C19.9393 35.386 19.6839 35.5281 19.4498 35.5827C19.2477 35.6264 19.1093 35.5718 19.0455 35.4079C18.9817 35.244 18.9497 35.0146 18.9391 34.7087C18.9391 34.4028 18.9817 34.0423 19.0774 33.638C19.1732 33.2338 19.2477 32.8296 19.3009 32.4363C19.3647 32.0321 19.4711 31.5405 19.6413 30.9614C19.8009 30.3715 19.9286 29.9017 20.0137 29.5303C20.0989 29.1588 20.1733 28.8311 20.2372 28.547C20.301 28.263 20.3329 28.0445 20.3329 27.8915C20.3329 27.7167 20.2797 27.5856 20.184 27.5091C20.0882 27.4217 19.9073 27.4217 19.6307 27.4873C19.4817 27.5201 19.3221 27.5856 19.1306 27.6621C18.9497 27.7386 18.7689 27.8478 18.5986 27.9571C18.4284 28.0772 18.2794 28.2083 18.1411 28.3722C17.9921 28.547 17.907 28.7218 17.8751 28.8966C17.8219 29.1588 17.6729 29.716 17.4282 30.5791C17.1729 31.6388 16.992 32.3161 16.9069 32.622C16.8537 32.775 16.7366 33.4632 16.5558 34.6868C16.4706 35.2768 16.4281 35.7903 16.4281 36.2054C16.4281 36.5113 16.46 36.7844 16.5238 37.0248C16.5877 37.2651 16.6941 37.4509 16.8324 37.5929C16.9813 37.7349 17.1622 37.8223 17.3963 37.866C17.6304 37.9097 17.9177 37.8879 18.2581 37.8114C18.6412 37.724 19.0349 37.5601 19.4605 37.3088C19.8861 37.0685 20.2904 36.7954 20.6947 36.4785C21.099 36.1726 21.4714 35.8449 21.8225 35.5062C21.9608 35.3751 22.0885 35.244 22.2056 35.1238C22.163 35.0692 22.1311 35.0037 22.0885 34.949C22.1204 35.0146 22.163 35.0692 22.2056 35.1238C22.3013 35.2659 22.4077 35.397 22.5248 35.5171C22.8333 35.834 23.2164 36.0415 23.6845 36.1726C24.142 36.2928 24.674 36.2819 25.2805 36.1399C25.621 36.0634 25.9615 35.9214 26.3019 35.7356C26.6318 35.539 26.9616 35.3205 27.2702 35.0692C27.5787 34.8179 27.8767 34.5448 28.1533 34.2498C28.4406 33.9549 28.6959 33.649 28.9406 33.354C29.0364 33.2338 29.1322 33.1136 29.2279 32.9935C29.2598 33.1901 29.313 33.3649 29.3875 33.5288C29.5258 33.8565 29.7067 34.1078 29.9408 34.3045C30.1749 34.5011 30.4302 34.6213 30.7282 34.6868C31.0261 34.7524 31.3346 34.7415 31.6432 34.665C32.005 34.5776 32.3774 34.3919 32.7498 34.1078C33.1328 33.8238 33.4945 33.4742 33.8457 33.07L33.6329 34.3482C33.2285 34.8179 32.8668 35.2549 32.5795 35.6482C32.2816 36.0415 31.9092 36.5659 31.4517 37.1996C31.2282 37.5055 31.0048 37.8442 30.8026 38.2156C30.5898 38.5871 30.4409 38.8711 30.3451 39.0678C30.2494 39.2644 30.0791 39.614 29.845 40.1166C29.4194 41.0124 29.2386 41.8209 29.2918 42.5201C29.3237 42.8915 29.4088 43.1974 29.5578 43.4487C29.7067 43.689 29.8982 43.8638 30.143 43.9731C30.377 44.0823 30.643 44.137 30.9197 44.1479C31.207 44.1588 31.5155 44.126 31.8454 44.0496C32.2603 43.9512 32.6327 43.7983 32.9732 43.5798C33.3137 43.3613 33.6116 43.11 33.8563 42.8369C34.101 42.5638 34.3245 42.236 34.516 41.8864C34.7181 41.5259 34.8777 41.1763 34.9948 40.8376C35.1118 40.488 35.2182 40.1275 35.314 39.7233C35.3991 39.33 35.4629 38.9804 35.4949 38.6745C35.5268 38.3686 35.5693 38.0517 35.6013 37.724C35.6119 37.582 35.6332 37.3853 35.6651 37.134C35.7502 36.2382 35.8141 35.6264 35.8779 35.2877C35.9417 34.949 36.0588 34.6978 36.2397 34.5339C36.9738 33.8565 37.3994 33.4414 37.5271 33.2994C37.9527 32.8405 38.1974 32.5892 38.24 32.5455C38.3783 32.4035 38.6124 32.1413 38.9422 31.759C39.1231 31.5295 39.304 31.311 39.4636 31.0816C39.5593 31.2236 39.6657 31.3438 39.7828 31.464C40.0913 31.7808 40.4744 31.9884 40.9425 32.1195C41.4 32.2397 41.932 32.2287 42.5385 32.0867C42.879 32.0102 43.2195 31.8682 43.5599 31.6825C43.9004 31.4858 44.2196 31.2673 44.5282 31.0161C44.8367 30.7648 45.1346 30.4917 45.4113 30.1967C45.6986 29.9017 45.9539 29.5958 46.1986 29.3008C46.5072 28.9185 46.7945 28.5252 47.0818 28.0991C47.1882 28.5033 47.3158 28.8638 47.4754 29.1807C47.6989 29.6614 47.9649 30.0219 48.2734 30.2622C48.582 30.5026 48.9012 30.59 49.2523 30.5026C49.4757 30.448 49.7311 30.3606 49.9865 30.2404C50.2525 30.1202 50.5185 29.9673 50.7951 29.8034C51.0717 29.6395 51.3484 29.4538 51.6144 29.2571C51.891 29.0605 52.1464 28.8638 52.4017 28.6672C52.5933 28.5142 52.7848 28.3613 52.9869 28.1974C52.8912 28.0882 52.7954 27.9571 52.7209 27.826C52.8061 27.9571 52.8912 28.0772 52.9869 28.1974C53.0189 28.2302 53.0508 28.2739 53.0827 28.3067C53.3913 28.6344 53.7743 28.8529 54.2318 28.984C54.6893 29.1042 55.2213 29.1042 55.8384 28.9512C56.2321 28.8529 56.6152 28.7218 56.9982 28.5361C57.3812 28.3504 57.743 28.1428 58.1047 27.9024C58.4559 27.6621 58.7963 27.3999 59.1155 27.1268C59.4347 26.8427 59.7433 26.5696 60.0199 26.2965C60.6583 25.6519 61.2755 24.9527 61.8394 24.177L60.5945 23.1064ZM33.6222 37.4618C33.5797 37.8114 33.5477 38.1064 33.5265 38.3576C33.4945 38.6089 33.4626 38.8383 33.3988 39.0459C33.2924 39.4392 33.2073 39.7451 33.1434 39.9855C33.0796 40.2258 32.9945 40.4662 32.9093 40.7065C32.8242 40.9578 32.7391 41.1435 32.6646 41.2965C32.5902 41.4385 32.4944 41.5805 32.388 41.7116C32.2816 41.8427 32.1752 41.941 32.0475 42.0066C31.9198 42.0721 31.7815 42.1268 31.6219 42.1705C31.1963 42.2688 31.0793 41.9738 31.2921 41.2746C31.5474 40.4443 31.8986 39.6031 32.3348 38.7509C32.771 37.8988 33.2285 37.2542 33.6754 36.8063C33.6861 36.8937 33.6541 37.1122 33.6222 37.4618ZM49.231 22.4399C49.263 21.7407 49.3587 20.9104 49.5289 19.949C49.6992 18.9877 49.7843 18.5397 49.7843 18.507C49.7949 18.4851 49.9226 17.9826 50.2099 16.9228C50.4865 15.8631 50.7313 15.0984 50.9441 14.6067C51.1462 14.1151 51.3484 13.7218 51.5612 13.4159C51.7633 13.11 51.9549 12.9352 52.1357 12.8915C52.1889 12.8806 52.2102 12.9461 52.2209 13.0772C52.2315 13.2193 52.2315 13.3831 52.2421 13.5798C52.1889 14.2134 52.0506 14.9126 51.8378 15.6883C51.625 16.464 51.3697 17.2397 51.0824 18.0372C50.7951 18.8347 50.4865 19.6104 50.1567 20.3642C49.8375 21.1289 49.5289 21.8172 49.231 22.4399ZM52.4124 27.0612C52.4017 27.0175 52.3805 26.9629 52.3698 26.9192C52.3805 26.9629 52.3911 27.0175 52.4124 27.0612C52.4443 27.1705 52.4869 27.2688 52.5294 27.378C52.4869 27.2797 52.4443 27.1705 52.4124 27.0612ZM54.5404 23.8711C54.551 23.6635 54.6148 23.3904 54.7212 23.0408C54.8276 22.7021 54.9234 22.4072 54.9979 22.1777C55.083 21.9483 55.1894 21.7298 55.3171 21.5222C55.4554 21.3256 55.615 21.1399 55.8172 20.9869C56.0193 20.834 56.2534 20.7247 56.5407 20.6592C56.7003 20.6264 56.828 20.681 56.945 20.8558C57.0514 21.0197 57.1046 21.2491 57.1152 21.555C57.1152 21.7626 57.0088 22.0576 56.7748 22.4399C56.5513 22.8223 56.3172 23.1282 56.0725 23.3795C55.8384 23.6308 55.5724 23.8493 55.2958 24.035C55.0192 24.2207 54.7638 24.3409 54.5297 24.4064C54.5191 24.2535 54.5297 24.0787 54.5404 23.8711Z" fill="#AE4536"/>
<path d="M30.9303 60C30.6324 60 30.3983 59.7596 30.3983 59.4538C30.3983 59.1479 30.6324 58.9075 30.9303 58.9075C37.7399 58.9075 44.3047 56.3838 49.4332 51.7953C54.5084 47.2505 57.8281 41.0015 58.7963 34.1952C58.8389 33.9002 59.1049 33.6926 59.4028 33.7363C59.6901 33.78 59.8922 34.0532 59.8497 34.3591C58.8495 41.4275 55.4022 47.906 50.1354 52.6256C44.8154 57.378 37.9952 60 30.9303 60Z" fill="#B2AFA0"/>
<path d="M3.9155 20.6045C3.85166 20.6045 3.79846 20.5936 3.73462 20.5717C3.45799 20.4734 3.30903 20.1566 3.41543 19.8725C5.42638 14.1151 9.06524 9.17698 13.9383 5.59359C18.9178 1.93372 24.7911 0 30.9303 0C31.2283 0 31.4623 0.24035 31.4623 0.546249C31.4623 0.852148 31.2283 1.0925 30.9303 1.0925C25.0145 1.0925 19.3541 2.96067 14.5555 6.47851C9.86324 9.93081 6.35205 14.6941 4.41558 20.244C4.3411 20.4734 4.13894 20.6045 3.9155 20.6045Z" fill="#B2AFA0"/>
<path d="M40.4531 37.2323C40.3254 37.1886 40.1552 37.1559 39.9424 37.1449C39.7402 37.134 39.6019 37.1122 39.5168 37.0575C39.4316 37.0138 39.3891 36.9264 39.3891 36.7953C39.3891 36.6424 39.4316 36.5222 39.5274 36.413C39.6232 36.3037 39.7508 36.2272 39.9104 36.1945C40.1764 36.1289 40.4318 36.1835 40.6552 36.3693L40.8042 35.9104C40.6978 35.8121 40.5701 35.7465 40.4105 35.7247C40.2509 35.7028 40.0807 35.7028 39.9104 35.7465C39.7189 35.7902 39.5487 35.8776 39.3997 35.9978C39.2508 36.118 39.1444 36.26 39.0592 36.4239C38.9848 36.5878 38.9422 36.7735 38.9422 36.9592C38.9422 37.2214 39.0167 37.4071 39.1656 37.5164C39.3146 37.6256 39.538 37.6802 39.8572 37.6912C40.0594 37.7021 40.2084 37.724 40.2935 37.7677C40.3786 37.8114 40.4318 37.8987 40.4318 38.0189C40.4318 38.1609 40.3892 38.2811 40.2935 38.3794C40.1977 38.4778 40.07 38.5542 39.8892 38.5979C39.7296 38.6307 39.5912 38.6416 39.4529 38.6198C39.3252 38.5979 39.1869 38.5433 39.0699 38.445L38.9209 38.9038C39.038 39.0022 39.1869 39.0568 39.3465 39.0896C39.5168 39.1223 39.6976 39.1114 39.8892 39.0568C40.0913 39.0131 40.2722 38.9257 40.4212 38.8164C40.5701 38.7072 40.6872 38.5652 40.7616 38.4013C40.8361 38.2374 40.8787 38.0626 40.8787 37.866C40.8787 37.6912 40.8361 37.5491 40.7723 37.4508C40.6765 37.3525 40.5808 37.276 40.4531 37.2323Z" fill="#AE4536"/>
<path d="M43.7089 34.8725L43.7196 36.2272L42.4321 36.5331L42.4215 35.1784L41.9746 35.2767L41.9959 38.5105L42.4428 38.4122L42.4321 37.0029L43.7196 36.697L43.7302 38.1063L44.1771 37.997L44.1558 34.7632L43.7089 34.8725Z" fill="#AE4536"/>
<path d="M47.1562 34.217C46.9754 34.1296 46.7626 34.1078 46.5178 34.1733C46.2731 34.2279 46.0603 34.3481 45.8795 34.5229C45.6986 34.6977 45.5602 34.9271 45.4645 35.2003C45.3687 35.4734 45.3262 35.7793 45.3262 36.118C45.3262 36.4566 45.3794 36.7407 45.4751 36.9701C45.5709 37.1995 45.7092 37.3525 45.8901 37.4508C46.071 37.5382 46.2838 37.56 46.5285 37.5054C46.7732 37.4508 46.986 37.3306 47.1669 37.1558C47.3478 36.981 47.4861 36.7516 47.5712 36.4785C47.667 36.2054 47.7095 35.8995 47.7095 35.5608C47.7095 35.2221 47.6563 34.9381 47.5606 34.7196C47.4754 34.4574 47.3371 34.3044 47.1562 34.217ZM47.0818 36.5659C46.9541 36.8062 46.7732 36.9483 46.5391 37.0029C46.305 37.0575 46.1242 37.0029 45.9965 36.8171C45.8688 36.6423 45.7943 36.3583 45.7943 35.9759C45.7943 35.5936 45.8582 35.2767 45.9859 35.0473C46.1135 34.8179 46.2944 34.6649 46.5285 34.6103C46.7626 34.5557 46.9434 34.6103 47.0711 34.7851C47.1988 34.9599 47.2733 35.233 47.2733 35.6154C47.2733 36.0196 47.2094 36.3365 47.0818 36.5659Z" fill="#AE4536"/>
<path d="M50.6036 33.485C50.4546 33.3539 50.2418 33.3212 49.9758 33.3867L48.8906 33.6489L48.9118 36.8827L49.3694 36.7735L49.3587 35.4297L49.9971 35.2767C50.2631 35.2112 50.4759 35.0801 50.6249 34.8725C50.7738 34.6649 50.8483 34.4137 50.8483 34.1296C50.8377 33.8346 50.7525 33.6161 50.6036 33.485ZM50.2844 34.6212C50.1993 34.7196 50.0822 34.796 49.9226 34.8288L49.3374 34.9708L49.3268 33.9985L49.912 33.8565C50.0716 33.8237 50.1886 33.8346 50.2738 33.9002C50.3589 33.9657 50.3908 34.075 50.3908 34.2389C50.4121 34.3809 50.3695 34.512 50.2844 34.6212Z" fill="#AE4536"/>
</svg>
